<mxfile host="app.diagrams.net" modified="2024-01-09T10:20:01.848Z" agent="Mozilla/5.0 (Macintosh; Intel Mac OS X 10_15_7) AppleWebKit/537.36 (KHTML, like Gecko) Chrome/120.0.0.0 Safari/537.36" etag="m_-PrWP6CTLxxbkVR7wV" version="22.1.17" type="github">
  <diagram id="C5RBs43oDa-KdzZeNtuy" name="Page-1">
    <mxGraphModel dx="1152" dy="576" grid="1" gridSize="10" guides="1" tooltips="1" connect="1" arrows="1" fold="1" page="1" pageScale="1" pageWidth="827" pageHeight="1169" math="1" shadow="0">
      <root>
        <mxCell id="WIyWlLk6GJQsqaUBKTNV-0" />
        <mxCell id="WIyWlLk6GJQsqaUBKTNV-1" parent="WIyWlLk6GJQsqaUBKTNV-0" />
        <mxCell id="ViThs1E6ZkW2AHLPsCAg-5" style="edgeStyle=orthogonalEdgeStyle;rounded=0;orthogonalLoop=1;jettySize=auto;html=1;fontFamily=Helvetica;fontSize=12;fontColor=default;" edge="1" parent="WIyWlLk6GJQsqaUBKTNV-1" source="ViThs1E6ZkW2AHLPsCAg-0" target="ViThs1E6ZkW2AHLPsCAg-3">
          <mxGeometry relative="1" as="geometry" />
        </mxCell>
        <mxCell id="ViThs1E6ZkW2AHLPsCAg-0" value="Intitialize index i of executing GCL to 1;&lt;br&gt;Receive the value of \(GS_i\) , \(T_i\), and L from the module &quot;Configuration&quot;.&amp;nbsp;" style="rounded=0;whiteSpace=wrap;html=1;align=left;spacingLeft=8;verticalAlign=middle;spacingBottom=0;" vertex="1" parent="WIyWlLk6GJQsqaUBKTNV-1">
          <mxGeometry x="240" y="300" width="400" height="40" as="geometry" />
        </mxCell>
        <mxCell id="ViThs1E6ZkW2AHLPsCAg-4" style="edgeStyle=orthogonalEdgeStyle;rounded=0;orthogonalLoop=1;jettySize=auto;html=1;fontFamily=Helvetica;fontSize=12;fontColor=default;" edge="1" parent="WIyWlLk6GJQsqaUBKTNV-1" source="ViThs1E6ZkW2AHLPsCAg-1" target="ViThs1E6ZkW2AHLPsCAg-0">
          <mxGeometry relative="1" as="geometry" />
        </mxCell>
        <mxCell id="ViThs1E6ZkW2AHLPsCAg-1" value="Beginning of the progress" style="rounded=1;whiteSpace=wrap;html=1;" vertex="1" parent="WIyWlLk6GJQsqaUBKTNV-1">
          <mxGeometry x="360" y="240" width="160" height="40" as="geometry" />
        </mxCell>
        <mxCell id="ViThs1E6ZkW2AHLPsCAg-16" style="edgeStyle=orthogonalEdgeStyle;rounded=0;orthogonalLoop=1;jettySize=auto;html=1;fontFamily=Helvetica;fontSize=12;fontColor=default;" edge="1" parent="WIyWlLk6GJQsqaUBKTNV-1" source="ViThs1E6ZkW2AHLPsCAg-3" target="ViThs1E6ZkW2AHLPsCAg-10">
          <mxGeometry relative="1" as="geometry" />
        </mxCell>
        <mxCell id="ViThs1E6ZkW2AHLPsCAg-3" value="Timer function starts to initialize operation time-instant \(OT_i\) to 0,&lt;br&gt;current time-instant CT to 0;" style="rounded=0;whiteSpace=wrap;html=1;align=left;spacingLeft=8;verticalAlign=middle;spacingBottom=0;" vertex="1" parent="WIyWlLk6GJQsqaUBKTNV-1">
          <mxGeometry x="240" y="360" width="400" height="40" as="geometry" />
        </mxCell>
        <mxCell id="ViThs1E6ZkW2AHLPsCAg-10" value="Calculate \(OT_i\) by accumulating \(T_i: OT_i = OT_i-1 + T_i\)" style="whiteSpace=wrap;html=1;rounded=0;strokeColor=default;align=left;verticalAlign=middle;spacingLeft=8;spacingBottom=0;fontFamily=Helvetica;fontSize=12;fontColor=default;fillColor=default;" vertex="1" parent="WIyWlLk6GJQsqaUBKTNV-1">
          <mxGeometry x="275" y="420" width="330" height="30" as="geometry" />
        </mxCell>
        <mxCell id="ViThs1E6ZkW2AHLPsCAg-12" value="Update CT same as current simulation time-instant." style="whiteSpace=wrap;html=1;rounded=0;strokeColor=default;align=left;verticalAlign=middle;spacingLeft=8;spacingBottom=0;fontFamily=Helvetica;fontSize=12;fontColor=default;fillColor=default;" vertex="1" parent="WIyWlLk6GJQsqaUBKTNV-1">
          <mxGeometry x="275" y="480" width="305" height="30" as="geometry" />
        </mxCell>
        <mxCell id="ViThs1E6ZkW2AHLPsCAg-25" style="edgeStyle=orthogonalEdgeStyle;rounded=0;orthogonalLoop=1;jettySize=auto;html=1;fontFamily=Helvetica;fontSize=12;fontColor=default;" edge="1" parent="WIyWlLk6GJQsqaUBKTNV-1" source="ViThs1E6ZkW2AHLPsCAg-14" target="ViThs1E6ZkW2AHLPsCAg-15">
          <mxGeometry relative="1" as="geometry" />
        </mxCell>
        <mxCell id="ViThs1E6ZkW2AHLPsCAg-14" value="Is \(OT_i\) equal to CT?" style="rhombus;whiteSpace=wrap;html=1;rounded=0;strokeColor=default;align=center;verticalAlign=middle;spacingLeft=8;spacingBottom=0;fontFamily=Helvetica;fontSize=12;fontColor=default;fillColor=default;" vertex="1" parent="WIyWlLk6GJQsqaUBKTNV-1">
          <mxGeometry x="337.5" y="540" width="205" height="65" as="geometry" />
        </mxCell>
        <mxCell id="ViThs1E6ZkW2AHLPsCAg-28" style="edgeStyle=orthogonalEdgeStyle;rounded=0;orthogonalLoop=1;jettySize=auto;html=1;fontFamily=Helvetica;fontSize=12;fontColor=default;" edge="1" parent="WIyWlLk6GJQsqaUBKTNV-1" source="ViThs1E6ZkW2AHLPsCAg-15" target="ViThs1E6ZkW2AHLPsCAg-27">
          <mxGeometry relative="1" as="geometry" />
        </mxCell>
        <mxCell id="ViThs1E6ZkW2AHLPsCAg-15" value="At each \(OT_i\), Gate Operation examines the current gate states and&lt;br&gt;stores them in an 8-bit string called \(CGS_i\) (current gate state)." style="rounded=0;whiteSpace=wrap;html=1;align=left;spacingLeft=8;verticalAlign=middle;spacingBottom=0;" vertex="1" parent="WIyWlLk6GJQsqaUBKTNV-1">
          <mxGeometry x="240" y="630" width="400" height="40" as="geometry" />
        </mxCell>
        <mxCell id="ViThs1E6ZkW2AHLPsCAg-19" style="edgeStyle=orthogonalEdgeStyle;rounded=0;orthogonalLoop=1;jettySize=auto;html=1;entryX=0.541;entryY=0;entryDx=0;entryDy=0;entryPerimeter=0;fontFamily=Helvetica;fontSize=12;fontColor=default;" edge="1" parent="WIyWlLk6GJQsqaUBKTNV-1" source="ViThs1E6ZkW2AHLPsCAg-10" target="ViThs1E6ZkW2AHLPsCAg-12">
          <mxGeometry relative="1" as="geometry" />
        </mxCell>
        <mxCell id="ViThs1E6ZkW2AHLPsCAg-20" style="edgeStyle=orthogonalEdgeStyle;rounded=0;orthogonalLoop=1;jettySize=auto;html=1;entryX=0.541;entryY=0;entryDx=0;entryDy=0;entryPerimeter=0;fontFamily=Helvetica;fontSize=12;fontColor=default;" edge="1" parent="WIyWlLk6GJQsqaUBKTNV-1">
          <mxGeometry relative="1" as="geometry">
            <mxPoint x="439.72" y="510" as="sourcePoint" />
            <mxPoint x="439.72" y="540" as="targetPoint" />
          </mxGeometry>
        </mxCell>
        <mxCell id="ViThs1E6ZkW2AHLPsCAg-23" value="" style="endArrow=classic;html=1;rounded=0;fontFamily=Helvetica;fontSize=12;fontColor=default;edgeStyle=orthogonalEdgeStyle;exitX=1;exitY=0.5;exitDx=0;exitDy=0;" edge="1" parent="WIyWlLk6GJQsqaUBKTNV-1" source="ViThs1E6ZkW2AHLPsCAg-14">
          <mxGeometry width="50" height="50" relative="1" as="geometry">
            <mxPoint x="620" y="570" as="sourcePoint" />
            <mxPoint x="440" y="460" as="targetPoint" />
            <Array as="points">
              <mxPoint x="601" y="573" />
              <mxPoint x="601" y="460" />
            </Array>
          </mxGeometry>
        </mxCell>
        <mxCell id="ViThs1E6ZkW2AHLPsCAg-24" value="No" style="text;strokeColor=none;align=center;fillColor=none;html=1;verticalAlign=middle;whiteSpace=wrap;rounded=0;fontSize=12;fontFamily=Helvetica;fontColor=default;" vertex="1" parent="WIyWlLk6GJQsqaUBKTNV-1">
          <mxGeometry x="520" y="550" width="60" height="30" as="geometry" />
        </mxCell>
        <mxCell id="ViThs1E6ZkW2AHLPsCAg-26" value="Yes" style="text;strokeColor=none;align=center;fillColor=none;html=1;verticalAlign=middle;whiteSpace=wrap;rounded=0;fontSize=12;fontFamily=Helvetica;fontColor=default;" vertex="1" parent="WIyWlLk6GJQsqaUBKTNV-1">
          <mxGeometry x="397.5" y="600" width="60" height="30" as="geometry" />
        </mxCell>
        <mxCell id="ViThs1E6ZkW2AHLPsCAg-30" style="edgeStyle=orthogonalEdgeStyle;rounded=0;orthogonalLoop=1;jettySize=auto;html=1;fontFamily=Helvetica;fontSize=12;fontColor=default;" edge="1" parent="WIyWlLk6GJQsqaUBKTNV-1" source="ViThs1E6ZkW2AHLPsCAg-27" target="ViThs1E6ZkW2AHLPsCAg-29">
          <mxGeometry relative="1" as="geometry" />
        </mxCell>
        <mxCell id="ViThs1E6ZkW2AHLPsCAg-42" style="edgeStyle=orthogonalEdgeStyle;rounded=0;orthogonalLoop=1;jettySize=auto;html=1;fontFamily=Helvetica;fontSize=12;fontColor=default;" edge="1" parent="WIyWlLk6GJQsqaUBKTNV-1" source="ViThs1E6ZkW2AHLPsCAg-27">
          <mxGeometry relative="1" as="geometry">
            <mxPoint x="440" y="820" as="targetPoint" />
            <Array as="points">
              <mxPoint x="571" y="723" />
              <mxPoint x="571" y="820" />
              <mxPoint x="440" y="820" />
            </Array>
          </mxGeometry>
        </mxCell>
        <mxCell id="ViThs1E6ZkW2AHLPsCAg-27" value="Is \(CGS_i\) equal to \(GS_i\)?" style="rhombus;whiteSpace=wrap;html=1;rounded=0;strokeColor=default;align=center;verticalAlign=middle;spacingLeft=8;spacingBottom=0;fontFamily=Helvetica;fontSize=12;fontColor=default;fillColor=default;" vertex="1" parent="WIyWlLk6GJQsqaUBKTNV-1">
          <mxGeometry x="337.5" y="690" width="205" height="65" as="geometry" />
        </mxCell>
        <mxCell id="ViThs1E6ZkW2AHLPsCAg-38" style="edgeStyle=orthogonalEdgeStyle;rounded=0;orthogonalLoop=1;jettySize=auto;html=1;fontFamily=Helvetica;fontSize=12;fontColor=default;" edge="1" parent="WIyWlLk6GJQsqaUBKTNV-1" source="ViThs1E6ZkW2AHLPsCAg-29" target="ViThs1E6ZkW2AHLPsCAg-31">
          <mxGeometry relative="1" as="geometry" />
        </mxCell>
        <mxCell id="ViThs1E6ZkW2AHLPsCAg-29" value="Changes the \(CGS_i\)" style="whiteSpace=wrap;html=1;rounded=0;strokeColor=default;align=left;verticalAlign=middle;spacingLeft=8;spacingBottom=0;fontFamily=Helvetica;fontSize=12;fontColor=default;fillColor=default;" vertex="1" parent="WIyWlLk6GJQsqaUBKTNV-1">
          <mxGeometry x="373.75" y="780" width="132.5" height="30" as="geometry" />
        </mxCell>
        <mxCell id="ViThs1E6ZkW2AHLPsCAg-39" style="edgeStyle=orthogonalEdgeStyle;rounded=0;orthogonalLoop=1;jettySize=auto;html=1;fontFamily=Helvetica;fontSize=12;fontColor=default;" edge="1" parent="WIyWlLk6GJQsqaUBKTNV-1" source="ViThs1E6ZkW2AHLPsCAg-31" target="ViThs1E6ZkW2AHLPsCAg-32">
          <mxGeometry relative="1" as="geometry" />
        </mxCell>
        <mxCell id="ViThs1E6ZkW2AHLPsCAg-31" value="Transmission Selection function sends the queues traffic to the module&lt;br&gt;&quot;Transmission&quot; according to the \(CGS_i\) (open or closed) of queue." style="rounded=0;whiteSpace=wrap;html=1;align=left;spacingLeft=8;verticalAlign=middle;spacingBottom=0;" vertex="1" parent="WIyWlLk6GJQsqaUBKTNV-1">
          <mxGeometry x="240" y="840" width="400" height="40" as="geometry" />
        </mxCell>
        <mxCell id="ViThs1E6ZkW2AHLPsCAg-40" style="edgeStyle=orthogonalEdgeStyle;rounded=0;orthogonalLoop=1;jettySize=auto;html=1;fontFamily=Helvetica;fontSize=12;fontColor=default;" edge="1" parent="WIyWlLk6GJQsqaUBKTNV-1" source="ViThs1E6ZkW2AHLPsCAg-32" target="ViThs1E6ZkW2AHLPsCAg-34">
          <mxGeometry relative="1" as="geometry" />
        </mxCell>
        <mxCell id="ViThs1E6ZkW2AHLPsCAg-32" value="Initialze auxiliary variable: \(\lambda_i = T_i\)&lt;br&gt;Timer countdown: \(\lambda_i = \lambda_i - Tick\)" style="rounded=0;whiteSpace=wrap;html=1;align=left;spacingLeft=8;verticalAlign=middle;spacingBottom=0;" vertex="1" parent="WIyWlLk6GJQsqaUBKTNV-1">
          <mxGeometry x="335" y="910" width="210" height="40" as="geometry" />
        </mxCell>
        <mxCell id="ViThs1E6ZkW2AHLPsCAg-41" style="edgeStyle=orthogonalEdgeStyle;rounded=0;orthogonalLoop=1;jettySize=auto;html=1;fontFamily=Helvetica;fontSize=12;fontColor=default;" edge="1" parent="WIyWlLk6GJQsqaUBKTNV-1" source="ViThs1E6ZkW2AHLPsCAg-34">
          <mxGeometry relative="1" as="geometry">
            <mxPoint x="440" y="610" as="targetPoint" />
            <Array as="points">
              <mxPoint x="660" y="1013" />
              <mxPoint x="660" y="610" />
            </Array>
          </mxGeometry>
        </mxCell>
        <mxCell id="ViThs1E6ZkW2AHLPsCAg-47" style="edgeStyle=orthogonalEdgeStyle;rounded=0;orthogonalLoop=1;jettySize=auto;html=1;entryX=1;entryY=0.5;entryDx=0;entryDy=0;fontFamily=Helvetica;fontSize=12;fontColor=default;" edge="1" parent="WIyWlLk6GJQsqaUBKTNV-1" source="ViThs1E6ZkW2AHLPsCAg-34" target="ViThs1E6ZkW2AHLPsCAg-35">
          <mxGeometry relative="1" as="geometry" />
        </mxCell>
        <mxCell id="ViThs1E6ZkW2AHLPsCAg-34" value="\(\lambda_i &amp;gt; 0\)" style="rhombus;whiteSpace=wrap;html=1;rounded=0;strokeColor=default;align=center;verticalAlign=middle;spacingLeft=8;spacingBottom=0;fontFamily=Helvetica;fontSize=12;fontColor=default;fillColor=default;" vertex="1" parent="WIyWlLk6GJQsqaUBKTNV-1">
          <mxGeometry x="337.5" y="980" width="205" height="65" as="geometry" />
        </mxCell>
        <mxCell id="ViThs1E6ZkW2AHLPsCAg-50" style="edgeStyle=orthogonalEdgeStyle;rounded=0;orthogonalLoop=1;jettySize=auto;html=1;fontFamily=Helvetica;fontSize=12;fontColor=default;" edge="1" parent="WIyWlLk6GJQsqaUBKTNV-1" source="ViThs1E6ZkW2AHLPsCAg-35" target="ViThs1E6ZkW2AHLPsCAg-37">
          <mxGeometry relative="1" as="geometry" />
        </mxCell>
        <mxCell id="ViThs1E6ZkW2AHLPsCAg-35" value="Execute the next row of GCL:&lt;br&gt;\(i = i + 1\)" style="rounded=0;whiteSpace=wrap;html=1;align=left;spacingLeft=8;verticalAlign=middle;spacingBottom=0;" vertex="1" parent="WIyWlLk6GJQsqaUBKTNV-1">
          <mxGeometry x="70" y="992.5" width="170" height="40" as="geometry" />
        </mxCell>
        <mxCell id="ViThs1E6ZkW2AHLPsCAg-52" style="edgeStyle=orthogonalEdgeStyle;rounded=0;orthogonalLoop=1;jettySize=auto;html=1;entryX=0;entryY=0.5;entryDx=0;entryDy=0;fontFamily=Helvetica;fontSize=12;fontColor=default;" edge="1" parent="WIyWlLk6GJQsqaUBKTNV-1" source="ViThs1E6ZkW2AHLPsCAg-36" target="ViThs1E6ZkW2AHLPsCAg-35">
          <mxGeometry relative="1" as="geometry">
            <Array as="points">
              <mxPoint x="55" y="1013" />
            </Array>
          </mxGeometry>
        </mxCell>
        <mxCell id="ViThs1E6ZkW2AHLPsCAg-36" value="\(i = 0\)" style="rounded=0;whiteSpace=wrap;html=1;align=left;spacingLeft=8;verticalAlign=middle;spacingBottom=0;" vertex="1" parent="WIyWlLk6GJQsqaUBKTNV-1">
          <mxGeometry x="30" y="790" width="50" height="30" as="geometry" />
        </mxCell>
        <mxCell id="ViThs1E6ZkW2AHLPsCAg-51" style="edgeStyle=orthogonalEdgeStyle;rounded=0;orthogonalLoop=1;jettySize=auto;html=1;fontFamily=Helvetica;fontSize=12;fontColor=default;" edge="1" parent="WIyWlLk6GJQsqaUBKTNV-1" source="ViThs1E6ZkW2AHLPsCAg-37">
          <mxGeometry relative="1" as="geometry">
            <mxPoint x="440" y="410" as="targetPoint" />
            <Array as="points">
              <mxPoint x="155" y="410" />
            </Array>
          </mxGeometry>
        </mxCell>
        <mxCell id="ViThs1E6ZkW2AHLPsCAg-53" style="edgeStyle=orthogonalEdgeStyle;rounded=0;orthogonalLoop=1;jettySize=auto;html=1;fontFamily=Helvetica;fontSize=12;fontColor=default;" edge="1" parent="WIyWlLk6GJQsqaUBKTNV-1" source="ViThs1E6ZkW2AHLPsCAg-37" target="ViThs1E6ZkW2AHLPsCAg-36">
          <mxGeometry relative="1" as="geometry" />
        </mxCell>
        <mxCell id="ViThs1E6ZkW2AHLPsCAg-37" value="\(i &amp;gt; L\)" style="rhombus;whiteSpace=wrap;html=1;rounded=0;strokeColor=default;align=center;verticalAlign=middle;spacingLeft=8;spacingBottom=0;fontFamily=Helvetica;fontSize=12;fontColor=default;fillColor=default;" vertex="1" parent="WIyWlLk6GJQsqaUBKTNV-1">
          <mxGeometry x="100" y="570" width="110" height="35" as="geometry" />
        </mxCell>
        <mxCell id="ViThs1E6ZkW2AHLPsCAg-43" value="Yes" style="text;strokeColor=none;align=center;fillColor=none;html=1;verticalAlign=middle;whiteSpace=wrap;rounded=0;fontSize=12;fontFamily=Helvetica;fontColor=default;" vertex="1" parent="WIyWlLk6GJQsqaUBKTNV-1">
          <mxGeometry x="530" y="700" width="60" height="30" as="geometry" />
        </mxCell>
        <mxCell id="ViThs1E6ZkW2AHLPsCAg-44" value="No" style="text;strokeColor=none;align=center;fillColor=none;html=1;verticalAlign=middle;whiteSpace=wrap;rounded=0;fontSize=12;fontFamily=Helvetica;fontColor=default;" vertex="1" parent="WIyWlLk6GJQsqaUBKTNV-1">
          <mxGeometry x="390" y="750" width="60" height="30" as="geometry" />
        </mxCell>
        <mxCell id="ViThs1E6ZkW2AHLPsCAg-45" value="Yes" style="text;strokeColor=none;align=center;fillColor=none;html=1;verticalAlign=middle;whiteSpace=wrap;rounded=0;fontSize=12;fontFamily=Helvetica;fontColor=default;" vertex="1" parent="WIyWlLk6GJQsqaUBKTNV-1">
          <mxGeometry x="590" y="990" width="60" height="30" as="geometry" />
        </mxCell>
        <mxCell id="ViThs1E6ZkW2AHLPsCAg-46" value="(Execute current gate operation)" style="text;strokeColor=none;align=center;fillColor=none;html=1;verticalAlign=middle;whiteSpace=wrap;rounded=0;fontSize=12;fontFamily=Helvetica;fontColor=default;" vertex="1" parent="WIyWlLk6GJQsqaUBKTNV-1">
          <mxGeometry x="542.5" y="1015" width="140" height="30" as="geometry" />
        </mxCell>
        <mxCell id="ViThs1E6ZkW2AHLPsCAg-48" value="No" style="text;strokeColor=none;align=center;fillColor=none;html=1;verticalAlign=middle;whiteSpace=wrap;rounded=0;fontSize=12;fontFamily=Helvetica;fontColor=default;" vertex="1" parent="WIyWlLk6GJQsqaUBKTNV-1">
          <mxGeometry x="270" y="990" width="60" height="30" as="geometry" />
        </mxCell>
        <mxCell id="ViThs1E6ZkW2AHLPsCAg-49" value="(Execute next gate operation)" style="text;strokeColor=none;align=center;fillColor=none;html=1;verticalAlign=middle;whiteSpace=wrap;rounded=0;fontSize=12;fontFamily=Helvetica;fontColor=default;" vertex="1" parent="WIyWlLk6GJQsqaUBKTNV-1">
          <mxGeometry x="222" y="1017" width="140" height="30" as="geometry" />
        </mxCell>
        <mxCell id="ViThs1E6ZkW2AHLPsCAg-54" value="No" style="text;strokeColor=none;align=center;fillColor=none;html=1;verticalAlign=middle;whiteSpace=wrap;rounded=0;fontSize=12;fontFamily=Helvetica;fontColor=default;" vertex="1" parent="WIyWlLk6GJQsqaUBKTNV-1">
          <mxGeometry x="140" y="540" width="60" height="30" as="geometry" />
        </mxCell>
        <mxCell id="ViThs1E6ZkW2AHLPsCAg-55" value="Yes" style="text;strokeColor=none;align=center;fillColor=none;html=1;verticalAlign=middle;whiteSpace=wrap;rounded=0;fontSize=12;fontFamily=Helvetica;fontColor=default;" vertex="1" parent="WIyWlLk6GJQsqaUBKTNV-1">
          <mxGeometry x="40" y="590" width="60" height="30" as="geometry" />
        </mxCell>
      </root>
    </mxGraphModel>
  </diagram>
</mxfile>
